<svg xmlns="http://www.w3.org/2000/svg" viewBox="0 0 1600 700" role="img" aria-label="Old sea route map with islands and plotted mission paths">
  <defs>
    <linearGradient id="paper" x1="0" x2="1" y1="0" y2="1">
      <stop offset="0" stop-color="#f2dfb7"/>
      <stop offset="0.48" stop-color="#d9b978"/>
      <stop offset="1" stop-color="#7f4b25"/>
    </linearGradient>
    <pattern id="grid" width="90" height="90" patternUnits="userSpaceOnUse">
      <path d="M90 0 L0 0 0 90" fill="none" stroke="#6e4a2d" stroke-width="2" opacity="0.18"/>
    </pattern>
  </defs>
  <rect width="1600" height="700" fill="url(#paper)"/>
  <rect width="1600" height="700" fill="url(#grid)"/>
  <path d="M0 585 C245 510 375 635 610 558 C826 486 1022 604 1225 530 C1394 468 1502 512 1600 482 L1600 700 L0 700 Z" fill="#143b53" opacity="0.32"/>
  <path d="M190 192 C302 112 414 124 510 210 C412 244 332 295 230 280 C188 252 170 226 190 192 Z" fill="#2f6044" opacity="0.86"/>
  <path d="M1048 150 C1154 84 1285 110 1368 214 C1256 250 1158 284 1034 248 C1008 206 1012 174 1048 150 Z" fill="#345c4b" opacity="0.84"/>
  <path d="M650 382 C725 322 826 344 906 420 C816 452 728 462 642 430 C622 408 626 394 650 382 Z" fill="#536634" opacity="0.86"/>
  <path d="M264 252 C445 338 524 424 720 405 C905 387 1014 228 1212 220" fill="none" stroke="#642a19" stroke-width="9" stroke-linecap="round" stroke-dasharray="18 24"/>
  <path d="M722 405 C810 484 953 536 1146 500" fill="none" stroke="#123852" stroke-width="7" stroke-linecap="round" stroke-dasharray="15 20"/>
  <circle cx="264" cy="252" r="18" fill="#f3d481" stroke="#3a2415" stroke-width="5"/>
  <circle cx="722" cy="405" r="18" fill="#f3d481" stroke="#3a2415" stroke-width="5"/>
  <circle cx="1212" cy="220" r="18" fill="#f3d481" stroke="#3a2415" stroke-width="5"/>
  <circle cx="1146" cy="500" r="18" fill="#f3d481" stroke="#3a2415" stroke-width="5"/>
  <g transform="translate(1310 444)" opacity="0.86">
    <circle cx="0" cy="0" r="58" fill="none" stroke="#3a2415" stroke-width="7"/>
    <path d="M0 -84 L18 -18 L84 0 L18 18 L0 84 L-18 18 L-84 0 L-18 -18 Z" fill="#3a2415"/>
    <circle cx="0" cy="0" r="12" fill="#f3d481"/>
  </g>
  <g opacity="0.18" fill="#3a2415">
    <path d="M88 86 L255 110 L200 138 L140 132 Z"/>
    <path d="M942 590 L1195 612 L1128 642 L1010 638 Z"/>
  </g>
</svg>
